<svg xmlns="http://www.w3.org/2000/svg" xmlns:xlink="http://www.w3.org/1999/xlink" viewBox="0 0 473.48 473.48"><defs><style>.cls-1,.cls-4,.cls-5,.cls-6{fill:none;}.cls-2{fill:#231815;}.cls-3{clip-path:url(#clip-path);}.cls-4,.cls-6{stroke:#fff;}.cls-4{stroke-linecap:round;stroke-width:12.76px;}.cls-4,.cls-5,.cls-6{stroke-miterlimit:10;}.cls-5{stroke:#00a0e9;stroke-width:16.58px;}.cls-5,.cls-6{stroke-linecap:square;}.cls-6{stroke-width:15.14px;}</style><clipPath id="clip-path"><circle class="cls-1" cx="236.74" cy="236.74" r="236.74"/></clipPath></defs><g id="图层_2" data-name="图层 2"><g id="图层_1-2" data-name="图层 1"><circle class="cls-2" cx="236.74" cy="236.74" r="236.74"/><g class="cls-3"><path class="cls-4" d="M219.89,370.39H22.31a136.49,136.49,0,0,0,0,39.08,141.86,141.86,0,0,0,11.62,39.07h186"/><path class="cls-4" d="M253.59,371.15H451.17a137.14,137.14,0,0,1,0,39.07,142.1,142.1,0,0,1-11.62,39.07h-186"/><line class="cls-4" x1="32.66" y1="410.22" x2="442.56" y2="410.22"/></g><line class="cls-5" x1="307.55" y1="287.11" x2="288.13" y2="214.64"/><path class="cls-5" d="M156.58,189.46l-27.67,7.42c-.11-.37-.22-.73-.32-1.1-12.07-45.05,22.68-93.5,77.6-108.21.57-.16,1.14-.3,1.7-.44L230,169.78l15.14,56.38,22.15,82.65c.56-.14,1.13-.28,1.69-.44,54.93-14.71,89.68-63.16,77.61-108.21-.1-.37-.21-.73-.32-1.1l-27.68,7.41"/><path class="cls-5" d="M224.77,150.13l-16.88-63c-.56.14-1.13.28-1.7.44-54.92,14.71-89.67,63.16-77.6,108.21.1.37.21.73.32,1.1l27.67-7.42"/><line class="cls-5" x1="171.17" y1="108.07" x2="190.55" y2="180.4"/><path class="cls-6" d="M204,237l14.53,54.21-1.07.31c-43.75,11.72-71.84-9.22-86.32-63.29-.15-.56-.29-1.12-.43-1.67L268,189.75l20.27-5.25,56.29-15.26c-.14-.56-.28-1.12-.43-1.67-14.49-54.08-42.58-75-86.32-63.3l-1.08.31,14.53,54.21"/></g></g></svg>